# author: headus 3D tools
#  using: ply2obj v1.8
#   from: uvlayout v2.09.04
mtllib 0_Shelf_Low.mtl
# 56 vertices
v 0.5220000 1.4120000 0.1230000
v 0.5220000 1.4519999 0.1230000
v 0.5220000 1.4120000 -0.1220000
v 0.5220000 1.4519999 -0.1220000
v -0.5214220 1.4120000 0.1230000
v -0.5214220 1.4519999 0.1230000
v -0.5214220 1.4120000 -0.1220000
v -0.5214220 1.4519999 -0.1220000
v 0.4684491 1.4120000 0.0977540
v 0.4284491 1.4120000 0.0977540
v 0.4684491 1.3782352 0.0977540
v 0.4284491 1.3782352 0.0977540
v 0.4684491 1.3782352 -0.0882350
v 0.4284491 1.3782352 -0.0882350
v 0.4684491 1.1984821 -0.0882350
v 0.4284491 1.1984821 -0.0882350
v 0.4684491 1.1984821 -0.1220000
v 0.4284491 1.1984821 -0.1220000
v 0.4684491 1.4120000 -0.1220000
v 0.4284491 1.4120000 -0.1220000
v 0.4284491 1.4120000 0.0304920
v 0.4284491 1.3782352 0.0042270
v 0.4684491 1.4120000 0.0304920
v 0.4284491 1.3782352 0.0567570
v 0.4684491 1.3782352 0.0567570
v 0.4684491 1.3782352 0.0042270
v 0.4684491 1.3006502 -0.0882350
v 0.4684491 1.2565722 -0.0882350
v 0.4284491 1.2565722 -0.0882350
v 0.4284491 1.3006502 -0.0882350
v 0.4684491 1.2786112 -0.1220000
v 0.4284491 1.2786112 -0.1220000
v -0.4678710 1.4120000 0.0977540
v -0.4278710 1.4120000 0.0977540
v -0.4678710 1.3782352 0.0977540
v -0.4278710 1.3782352 0.0977540
v -0.4678710 1.3782352 -0.0882350
v -0.4278710 1.3782352 -0.0882350
v -0.4678710 1.1984821 -0.0882350
v -0.4278710 1.1984821 -0.0882350
v -0.4678710 1.1984821 -0.1220000
v -0.4278710 1.1984821 -0.1220000
v -0.4678710 1.4120000 -0.1220000
v -0.4278710 1.4120000 -0.1220000
v -0.4278710 1.4120000 0.0304920
v -0.4278710 1.3782352 0.0042270
v -0.4678710 1.4120000 0.0304920
v -0.4278710 1.3782352 0.0567570
v -0.4678710 1.3782352 0.0567570
v -0.4678710 1.3782352 0.0042270
v -0.4678710 1.3006502 -0.0882350
v -0.4678710 1.2565722 -0.0882350
v -0.4278710 1.2565722 -0.0882350
v -0.4278710 1.3006502 -0.0882350
v -0.4678710 1.2786112 -0.1220000
v -0.4278710 1.2786112 -0.1220000
# 8 normals
vn 1.000000 0.000000 0.000000
vn 0.000000 1.000000 0.000000
vn 0.000000 0.000000 1.000000
vn -1.000000 0.000000 0.000000
vn 0.000000 0.000000 -1.000000
vn 0.000000 -1.000000 0.000000
vn 0.000000 -0.765855 0.642648
vn 0.000000 0.765855 -0.642648
# 172 uv coords
vt 0.338433 0.778578
vt 0.371092 0.778578
vt 0.371092 0.978617
vt 0.338433 0.978617
vt 0.021603 0.873550
vt 0.021603 0.021603
vt 0.221643 0.021603
vt 0.221643 0.873550
vt 0.296386 0.126913
vt 0.296386 0.978860
vt 0.263726 0.978860
vt 0.263726 0.126913
vt 0.338433 0.221642
vt 0.338433 0.021603
vt 0.371092 0.021603
vt 0.371092 0.221642
vt 0.978652 0.021603
vt 0.978652 0.873550
vt 0.945995 0.873550
vt 0.945995 0.021603
vt 0.703870 0.978860
vt 0.703870 0.126913
vt 0.903910 0.126913
vt 0.903910 0.978860
vt 0.587425 0.523853
vt 0.587425 0.556512
vt 0.559856 0.556512
vt 0.559856 0.523853
vt 0.662132 0.875647
vt 0.662132 0.951141
vt 0.634563 0.978710
vt 0.634563 0.854202
vt 0.662132 0.832754
vt 0.634563 0.799284
vt 0.662132 0.799281
vt 0.414941 0.362909
vt 0.414941 0.264358
vt 0.442510 0.241224
vt 0.442510 0.395767
vt 0.413142 0.978712
vt 0.413142 0.923791
vt 0.440710 0.945234
vt 0.440710 0.978708
vt 0.440710 0.902346
vt 0.413142 0.799281
vt 0.440710 0.826852
vt 0.128970 0.978963
vt 0.096310 0.978963
vt 0.096310 0.951395
vt 0.128970 0.951395
vt 0.661823 0.648684
vt 0.661823 0.757595
vt 0.629163 0.757595
vt 0.629163 0.648684
vt 0.629163 0.583259
vt 0.661823 0.583259
vt 0.482449 0.069034
vt 0.482449 0.021604
vt 0.510018 0.021603
vt 0.510018 0.087026
vt 0.482449 0.105024
vt 0.510018 0.195938
vt 0.482449 0.168372
vt 0.510019 0.951451
vt 0.482449 0.979019
vt 0.482449 0.870107
vt 0.510019 0.888103
vt 0.510019 0.852114
vt 0.482449 0.804680
vt 0.510019 0.804682
vt 0.440401 0.603060
vt 0.440401 0.757600
vt 0.407741 0.757600
vt 0.407741 0.603060
vt 0.021603 0.979022
vt 0.021603 0.931593
vt 0.054262 0.931593
vt 0.054262 0.979022
vt 0.903947 0.021603
vt 0.903947 0.084950
vt 0.871287 0.084950
vt 0.871287 0.021603
vt 0.483348 0.471532
vt 0.483348 0.396039
vt 0.516009 0.396039
vt 0.516009 0.471532
vt 0.661822 0.541124
vt 0.629163 0.541124
vt 0.629163 0.507651
vt 0.661822 0.507651
vt 0.559856 0.383439
vt 0.592516 0.383439
vt 0.592516 0.481990
vt 0.559856 0.481990
vt 0.534654 0.788206
vt 0.534654 0.633664
vt 0.562222 0.656798
vt 0.562222 0.755349
vt 0.221988 0.978656
vt 0.194419 0.978656
vt 0.194419 0.945995
vt 0.221988 0.945995
vt 0.413142 0.146113
vt 0.413142 0.021603
vt 0.440710 0.049172
vt 0.440710 0.124667
vt 0.440710 0.167556
vt 0.440710 0.201030
vt 0.413142 0.201032
vt 0.523853 0.229077
vt 0.551422 0.196219
vt 0.551422 0.350762
vt 0.523853 0.327628
vt 0.634563 0.021606
vt 0.662132 0.021603
vt 0.662132 0.055078
vt 0.634563 0.076523
vt 0.662132 0.097969
vt 0.662132 0.173465
vt 0.634563 0.201032
vt 0.703870 0.049170
vt 0.703870 0.021603
vt 0.736530 0.021603
vt 0.736530 0.049170
vt 0.592517 0.870106
vt 0.592517 0.979016
vt 0.559856 0.979016
vt 0.559856 0.870106
vt 0.592517 0.804680
vt 0.559856 0.804680
vt 0.634563 0.308451
vt 0.634563 0.243024
vt 0.662132 0.243027
vt 0.662132 0.290456
vt 0.662132 0.326444
vt 0.662132 0.389793
vt 0.634563 0.417365
vt 0.565257 0.168375
vt 0.565257 0.105026
vt 0.592825 0.087029
vt 0.592825 0.195942
vt 0.565257 0.069036
vt 0.565257 0.021607
vt 0.592825 0.021603
vt 0.338433 0.263726
vt 0.371093 0.263726
vt 0.371093 0.418268
vt 0.338433 0.418268
vt 0.296386 0.069031
vt 0.263726 0.069031
vt 0.263726 0.021603
vt 0.296386 0.021603
vt 0.945995 0.915392
vt 0.978654 0.915392
vt 0.978654 0.978739
vt 0.945995 0.978739
vt 0.371093 0.535441
vt 0.338433 0.535441
vt 0.338433 0.459946
vt 0.371093 0.459946
vt 0.796580 0.055076
vt 0.796580 0.021603
vt 0.829239 0.021603
vt 0.829239 0.055076
vt 0.515110 0.513051
vt 0.515110 0.611603
vt 0.482449 0.611603
vt 0.482449 0.513051
vt 0.366001 0.736899
vt 0.338433 0.704042
vt 0.338433 0.605490
vt 0.366001 0.582358
# 54 polygons
usemtl 0_None
s 0_off
f 3/1/1 4/2/1 2/3/1 1/4/1
f 4/5/2 8/6/2 6/7/2 2/8/2
f 5/9/3 1/10/3 2/11/3 6/12/3
f 7/13/4 5/14/4 6/15/4 8/16/4
f 3/17/5 7/18/5 8/19/5 4/20/5
f 1/21/6 5/22/6 7/23/6 3/24/6
f 9/25/3 10/26/3 12/27/3 11/28/3
f 26/29/1 13/30/1 19/31/1 23/32/1
f 22/36/4 30/37/4 29/38/4 24/39/4
f 10/40/4 21/41/4 24/42/4 12/43/4
f 15/47/6 16/48/6 18/49/6 17/50/6
f 31/54/5 32/51/5 20/52/5 19/53/5
f 28/57/1 15/58/1 17/59/1 31/60/1
f 14/64/4 20/65/4 32/66/4 30/67/4
f 28/71/7 25/72/7 24/73/7 29/74/7
f 29/75/3 16/76/3 15/77/3 28/78/3
f 27/79/3 13/80/3 14/81/3 30/82/3
f 22/83/6 14/84/6 13/85/6 26/86/6
f 11/87/6 12/88/6 24/89/6 25/90/6
f 24/42/4 21/41/4 22/44/4
f 23/32/1 25/33/1 26/29/1
f 22/44/4 21/41/4 20/45/4 14/46/4
f 25/33/1 23/32/1 9/34/1 11/35/1
f 27/91/8 30/92/8 22/93/8 26/94/8
f 25/95/1 28/96/1 27/97/1 26/98/1
f 17/55/5 18/56/5 32/51/5 31/54/5
f 29/68/4 32/66/4 18/69/4 16/70/4
f 27/61/1 31/60/1 19/62/1 13/63/1
f 27/61/1 28/57/1 31/60/1
f 30/67/4 32/66/4 29/68/4
f 33/99/3 35/100/3 36/101/3 34/102/3
f 50/106/4 47/103/4 43/104/4 37/105/4
f 46/110/1 48/111/1 53/112/1 54/113/1
f 34/114/1 36/115/1 48/116/1 45/117/1
f 39/121/6 41/122/6 42/123/6 40/124/6
f 55/125/5 43/126/5 44/127/5 56/128/5
f 52/134/4 55/131/4 41/132/4 39/133/4
f 38/138/1 54/139/1 56/140/1 44/141/1
f 52/145/7 53/146/7 48/147/7 49/148/7
f 53/149/3 52/150/3 39/151/3 40/152/3
f 51/153/3 54/154/3 38/155/3 37/156/3
f 46/157/6 50/158/6 37/159/6 38/160/6
f 35/161/6 49/162/6 48/163/6 36/164/6
f 48/116/1 46/118/1 45/117/1
f 47/103/4 50/106/4 49/107/4
f 46/118/1 38/119/1 44/120/1 45/117/1
f 49/107/4 35/108/4 33/109/4 47/103/4
f 51/165/8 50/166/8 46/167/8 54/168/8
f 49/169/4 50/170/4 51/171/4 52/172/4
f 41/129/5 55/125/5 56/128/5 42/130/5
f 53/142/1 40/143/1 42/144/1 56/140/1
f 51/135/4 37/136/4 43/137/4 55/131/4
f 51/135/4 55/131/4 52/134/4
f 54/139/1 53/142/1 56/140/1
# totals: 56 172 8 54
